<?xml version="1.0" standalone="no"?>
<!DOCTYPE svg PUBLIC "-//W3C//DTD SVG 20010904//EN"
 "http://www.w3.org/TR/2001/REC-SVG-20010904/DTD/svg10.dtd">
<svg version="1.0" xmlns="http://www.w3.org/2000/svg"
 width="300.000000pt" height="298.000000pt" viewBox="0 0 300.000000 298.000000"
 preserveAspectRatio="xMidYMid meet">
<metadata>
Created by potrace 1.10, written by Peter Selinger 2001-2011
</metadata>
<g transform="translate(0.000000,298.000000) scale(0.100000,-0.100000)"
fill="#000000" stroke="none">
<path d="M1603 2153 c-13 -2 -23 -11 -23 -18 0 -11 -16 -14 -67 -14 -144 1
-252 -73 -285 -195 -11 -43 -21 -55 -83 -101 -76 -56 -115 -105 -140 -174 -26
-74 -29 -140 -10 -211 29 -109 32 -104 -60 -113 -178 -17 -262 19 -329 143
-66 122 -22 275 102 347 44 26 54 37 25 26 -140 -52 -217 -223 -164 -363 29
-78 71 -124 147 -161 63 -31 66 -32 167 -26 56 4 123 10 149 13 l47 7 -32 60
c-29 55 -32 69 -32 151 0 79 4 98 28 148 33 68 112 143 168 159 37 11 39 15
39 51 0 83 76 179 167 209 33 11 114 8 158 -5 15 -5 25 2 43 29 23 37 26 46
15 44 -5 -1 -18 -4 -30 -6z"/>
<path d="M2246 2083 c3 -10 10 -27 14 -38 18 -44 30 -90 31 -119 0 -17 5 -40
10 -51 19 -40 0 102 -21 159 -19 50 -48 92 -34 49z"/>
<path d="M829 2012 c-42 -44 -59 -81 -59 -125 0 -28 5 -35 33 -45 l32 -12 -28
23 c-28 22 -28 23 -16 70 7 30 25 63 46 84 18 20 32 38 30 39 -2 2 -19 -13
-38 -34z"/>
<path d="M2380 1814 c22 -20 37 -40 34 -45 -3 -5 0 -9 5 -9 6 0 10 -3 9 -7 -1
-5 5 -21 12 -38 21 -47 17 -162 -7 -216 -29 -64 -86 -125 -136 -143 -23 -9
-116 -25 -207 -35 -91 -11 -304 -36 -475 -57 -350 -41 -359 -41 -452 22 -61
42 -88 41 -46 0 45 -46 126 -79 197 -79 71 0 913 98 967 113 63 17 124 73 161
147 29 60 33 77 32 148 0 63 -5 89 -23 124 -23 43 -85 111 -102 111 -5 0 9
-16 31 -36z"/>
<path d="M1790 994 l0 -114 606 0 c530 0 605 2 594 15 -6 8 -8 20 -4 27 6 9 3
9 -9 -1 -10 -8 -49 -17 -87 -20 -56 -6 -70 -4 -70 7 0 10 -6 12 -17 7 -44 -18
-73 -21 -135 -17 -38 2 -68 8 -68 12 0 5 -15 4 -32 -1 -40 -12 -145 -9 -175 4
-21 9 -40 37 -25 37 4 0 8 12 9 26 1 19 -2 23 -10 15 -20 -20 -27 -12 -27 28
0 54 16 64 106 63 42 -1 79 -3 81 -6 3 -2 18 0 33 6 18 6 35 6 46 0 10 -5 32
-6 53 -1 27 6 38 5 44 -7 5 -8 14 -12 20 -8 7 3 3 -2 -8 -11 -16 -13 -17 -18
-7 -33 30 -42 52 -78 52 -86 0 -4 -11 -6 -25 -4 -19 4 -25 1 -25 -13 0 -29 23
-23 72 21 44 38 77 94 64 107 -3 4 -30 6 -59 6 -46 0 -47 0 -9 4 23 2 40 8 37
14 -4 5 3 5 19 0 18 -8 26 -6 30 5 4 11 21 14 71 12 42 -2 65 1 65 8 0 8 -172
11 -605 11 l-605 0 0 -113z m536 30 c-1 -52 3 -66 28 -98 28 -38 28 -38 5 -31
-13 4 -27 12 -30 17 -3 5 -27 9 -52 10 -36 0 -47 4 -48 17 -1 13 -2 13 -6 -1
-6 -23 -73 -26 -73 -3 0 9 -6 12 -16 8 -13 -5 -13 -7 -2 -14 9 -6 3 -8 -17 -7
-17 1 -36 -1 -43 -6 -8 -5 -12 1 -12 20 0 21 4 25 20 21 11 -3 18 -1 14 4 -3
5 0 9 5 9 6 0 11 -4 11 -9 0 -5 10 -6 23 -3 22 6 22 6 -3 12 -22 5 -24 11 -22
42 2 20 -1 39 -7 43 -19 11 -13 27 7 16 11 -6 25 -5 40 3 13 7 57 12 101 12
l77 -1 0 -61z m-476 18 c0 -22 5 -28 23 -29 20 -2 21 -1 5 11 -24 18 -23 46 2
46 21 0 28 -19 8 -21 -10 0 -10 -2 0 -6 25 -10 13 -41 -18 -45 -26 -4 -30 -1
-30 18 0 12 -3 29 -6 38 -3 9 -1 16 5 16 6 0 11 -13 11 -28z m220 18 c0 -5 7
-10 16 -10 13 0 14 -3 5 -14 -8 -10 -9 -16 -1 -21 22 -13 8 -20 -37 -17 -101
6 -108 7 -108 21 0 22 34 39 44 22 6 -9 11 -10 15 -2 9 14 36 15 36 1 0 -5 -7
-10 -17 -10 -19 0 -9 -13 12 -16 10 -2 15 7 15 27 0 16 5 29 10 29 6 0 10 -4
10 -10z m-134 -38 c2 -34 -12 -33 -26 2 -9 24 -3 39 13 33 6 -2 12 -18 13 -35z
m864 8 c15 0 6 -40 -13 -58 -18 -16 -20 -16 -33 3 -26 35 -12 71 24 59 8 -2
17 -4 22 -4z m-752 -70 c-7 -11 -19 -18 -25 -15 -7 2 -13 0 -13 -5 0 -5 8 -11
18 -13 13 -4 11 -5 -5 -6 -13 0 -23 5 -24 12 0 10 -2 10 -6 0 -6 -16 -75 -17
-91 -1 -8 8 -12 8 -12 1 0 -6 -13 -13 -28 -15 -25 -4 -28 -1 -24 19 6 31 10
33 62 23 26 -5 50 -4 56 1 6 5 28 7 48 4 22 -4 36 -2 36 4 0 6 5 11 10 11 6 0
5 -8 -2 -20z"/>
<path d="M2202 1018 c3 -31 0 -38 -17 -42 -13 -3 -21 -14 -22 -28 -2 -21 -1
-22 11 -5 7 9 16 17 20 17 3 0 6 -8 7 -17 0 -10 5 -5 11 12 12 38 11 76 -3 90
-8 7 -10 0 -7 -27z"/>
<path d="M2266 995 c-3 -8 -12 -15 -21 -15 -20 0 -19 -16 1 -24 20 -8 19 -8
28 27 7 29 2 37 -8 12z"/>
<path d="M2946 1053 c-12 -12 -6 -22 11 -16 12 5 15 2 10 -10 -7 -18 1 -21 21
-8 11 6 11 10 0 18 -23 18 -35 23 -42 16z"/>
<path d="M38 82 c-30 -3 -38 -7 -38 -23 0 -18 8 -19 121 -19 119 0 120 0 117
23 -3 21 -8 22 -83 22 -44 0 -97 -1 -117 -3z m172 -24 c0 -4 -36 -8 -80 -8
-45 0 -80 4 -80 10 0 5 34 9 80 8 44 -1 80 -6 80 -10z"/>
</g>
</svg>
